<svg width="32" height="32" viewBox="0 0 32 32" fill="none" xmlns="http://www.w3.org/2000/svg">
<path d="M15.9947 3C8.26662 3 2 7.97177 2 14.1072C2 18.074 4.6181 21.5489 8.56102 23.5218L7.14157 28.6258C7.14157 28.6258 7.11528 28.8638 7.26774 28.9537C7.4202 29.0436 7.60421 28.9749 7.60421 28.9749C8.04581 28.9114 12.7037 25.6163 13.5186 25.045C14.3229 25.1614 15.1588 25.2196 16.0053 25.2196C23.7334 25.2196 30 20.2478 30 14.1124C30 7.97706 23.7229 3 15.9947 3Z" fill="black"/>
<path d="M8.25642 17.9788C7.80955 17.9788 7.4468 17.6297 7.4468 17.2013V12.3723H6.18507C5.74872 12.3723 5.39648 12.0179 5.39648 11.5789C5.39648 11.1399 5.75398 10.7856 6.18507 10.7856H10.3225C10.7589 10.7856 11.1111 11.1399 11.1111 11.5789C11.1111 12.0179 10.7536 12.3723 10.3225 12.3723H9.06077V17.2013C9.06077 17.6244 8.69277 17.9788 8.25116 17.9788H8.25642ZM15.3379 17.9682C15.0014 17.9682 14.7438 17.8307 14.665 17.6085L14.2654 16.5507H11.805L11.4055 17.6085C11.3266 17.8307 11.069 17.9682 10.7326 17.9682C10.5538 17.9682 10.3803 17.9312 10.2174 17.8624C9.99656 17.7566 9.78101 17.4763 10.0281 16.7094L11.9575 11.5948C12.0942 11.2034 12.5095 10.8014 13.0352 10.7909C13.561 10.7803 13.9815 11.2034 14.113 11.5948L16.0424 16.7094C16.2895 17.4763 16.0739 17.7672 15.8531 17.8624C15.6954 17.9365 15.5166 17.9682 15.3379 17.9682ZM13.8396 15.1121L13.0352 12.806L12.2309 15.1121H13.8396ZM17.3409 17.8624C16.9203 17.8624 16.5681 17.5292 16.5681 17.1219V11.5948C16.5681 11.1452 16.9361 10.7803 17.3935 10.7803C17.8509 10.7803 18.2189 11.1505 18.2189 11.5948V16.3656H19.9327C20.3533 16.3656 20.7055 16.6988 20.7055 17.1061C20.7055 17.5133 20.3586 17.8465 19.9327 17.8465L17.3409 17.8624ZM21.0157 17.1537V11.6001C21.0157 11.1505 21.3837 10.7856 21.8253 10.7856C22.2669 10.7856 22.6349 11.1558 22.6349 11.6001V13.3455L24.8955 11.0712C25.1444 10.8208 25.6148 10.8428 25.8997 11.1294C26.1673 11.3986 26.2368 11.8536 25.9575 12.1396L24.107 13.9908L26.0942 16.6353C26.3612 16.9792 26.2964 17.5148 25.9365 17.7672C25.5816 18.0317 25.0603 17.9435 24.8062 17.6085L22.9136 15.0856L22.6349 15.3659V17.1378C22.6349 18.1932 21.0157 18.2338 21.0157 17.1537Z" fill="#FFE812"/>
</svg>
