<svg width="32" height="32" viewBox="0 0 32 32" fill="none" xmlns="http://www.w3.org/2000/svg">
<path d="M30 14.4979C30 8.15792 23.7199 3 15.9999 3C8.28094 3 2 8.15792 2 14.4979C2 20.1817 6.98063 24.9417 13.7084 25.8418C14.1644 25.9412 14.7849 26.146 14.9419 26.5404C15.0831 26.8986 15.0342 27.4598 14.987 27.8216C14.987 27.8216 14.8227 28.8214 14.7873 29.0343C14.7264 29.3926 14.5061 30.4353 15.9999 29.7981C17.4942 29.1609 24.0626 24.9935 26.9998 21.572C29.0287 19.3204 30 17.0353 30 14.4979Z" fill="#2CCF54"/>
<path d="M13.1553 11.4249H12.1733C12.0228 11.4249 11.9004 11.5483 11.9004 11.7V17.8665C11.9004 18.0184 12.0228 18.1416 12.1733 18.1416H13.1553C13.3059 18.1416 13.428 18.0184 13.428 17.8665V11.7C13.428 11.5483 13.3059 11.4249 13.1553 11.4249Z" fill="white"/>
<path d="M19.9147 11.4249H18.9327C18.7821 11.4249 18.66 11.5483 18.66 11.7V15.3635L15.8645 11.5472C15.8128 11.4688 15.729 11.43 15.6375 11.4249H14.6558C14.5052 11.4249 14.3828 11.5483 14.3828 11.7V17.8665C14.3828 18.0184 14.5052 18.1416 14.6558 18.1416H15.6375C15.7883 18.1416 15.9104 18.0184 15.9104 17.8665V14.204L18.7094 18.0252C18.7597 18.0972 18.845 18.1416 18.9327 18.1416H19.9147C20.0655 18.1416 20.1874 18.0184 20.1874 17.8665V11.7C20.1874 11.5483 20.0655 11.4249 19.9147 11.4249Z" fill="white"/>
<path d="M10.7884 16.5974H8.12013V11.7002C8.12013 11.548 7.99802 11.4246 7.84773 11.4246H6.86545C6.71489 11.4246 6.59277 11.548 6.59277 11.7002V17.8657C6.59277 18.0154 6.71435 18.1416 6.86518 18.1416H10.7884C10.9389 18.1416 11.0605 18.0179 11.0605 17.8657V16.873C11.0605 16.7208 10.9389 16.5974 10.7884 16.5974Z" fill="white"/>
<path d="M25.3372 12.9688C25.4878 12.9688 25.6094 12.8456 25.6094 12.6932V11.7005C25.6094 11.5483 25.4878 11.4246 25.3372 11.4246H21.4143C21.2636 11.4246 21.1416 11.5506 21.1416 11.7002V17.866C21.1416 18.0152 21.2633 18.1416 21.4137 18.1416H25.3372C25.4878 18.1416 25.6094 18.0179 25.6094 17.866V16.873C25.6094 16.7211 25.4878 16.5974 25.3372 16.5974H22.6692V15.5551H25.3372C25.4878 15.5551 25.6094 15.4316 25.6094 15.2794V14.2868C25.6094 14.1346 25.4878 14.0109 25.3372 14.0109H22.6692V12.9688H25.3372Z" fill="white"/>
</svg>
