<svg width="106" height="81" viewBox="0 0 106 81" fill="none" xmlns="http://www.w3.org/2000/svg">
<path d="M34.5366 14.8418C34.7006 14.8418 34.8629 14.7683 34.9748 14.6291C35.1738 14.3811 35.1389 14.0147 34.8961 13.8098L32.4146 11.7167L34.5739 11.1982C34.78 11.1484 34.9417 10.9867 34.9938 10.7765C35.0471 10.5662 34.9813 10.3443 34.8244 10.1997L31.785 7.38569C31.5517 7.17054 31.1957 7.18878 30.9837 7.42824C30.7741 7.66709 30.7924 8.03358 31.0252 8.25055L33.2597 10.3188L31.0388 10.8518C30.8297 10.9017 30.6657 11.0706 30.6165 11.287C30.5674 11.5015 30.6414 11.7276 30.8084 11.8686L34.1765 14.7093C34.2825 14.7975 34.4104 14.8418 34.5366 14.8418ZM51.3805 5.10412L53.5884 4.8914L51.8839 7.68654C51.7181 7.95882 51.7986 8.3168 52.0639 8.48759C52.1569 8.54775 52.2617 8.57571 52.3636 8.57571C52.5525 8.57571 52.7373 8.47968 52.8445 8.30161L55.159 4.51033C55.2715 4.32253 55.2721 4.08428 55.1602 3.89587C55.0477 3.70746 54.8416 3.60232 54.6248 3.62237L52.353 3.83995L53.8318 1.14935C53.9858 0.870381 53.8898 0.515443 53.6168 0.35803C53.3467 0.201225 52.9997 0.298468 52.8451 0.578651L50.8339 4.23805C50.7296 4.42645 50.7373 4.65862 50.8516 4.83974C50.9653 5.02329 51.1655 5.12782 51.3805 5.10412ZM75.387 11.287C75.3384 11.0712 75.1738 10.9023 74.9635 10.8518L72.7426 10.3182L74.9772 8.24995C75.2099 8.03419 75.2283 7.66709 75.018 7.42763C74.809 7.18878 74.4483 7.17176 74.2179 7.38509L71.1779 10.1985C71.0216 10.3449 70.9558 10.5662 71.0085 10.7758C71.0618 10.9861 71.2223 11.1472 71.4284 11.1976L73.5878 11.7161L71.1063 13.8092C70.8658 14.0141 70.8297 14.3799 71.0281 14.6285C71.1394 14.7683 71.3017 14.8412 71.4663 14.8412C71.5931 14.8412 71.7204 14.7969 71.8264 14.7087L75.1945 11.868C75.3609 11.7276 75.4355 11.5015 75.387 11.287ZM44.8866 24.3602C44.6189 24.1912 44.2718 24.2787 44.1084 24.5498C43.9431 24.8251 44.0272 25.1813 44.2931 25.3502C45.9633 26.4059 46.5283 28.2104 45.846 30.3054C45.7465 30.6117 45.9064 30.9381 46.2031 31.0402C46.2635 31.0602 46.3245 31.07 46.3832 31.07C46.6189 31.07 46.8398 30.9174 46.9203 30.6737C47.7714 28.0639 47.0109 25.7033 44.8866 24.3602ZM42.6189 18.2156C40.2647 18.9984 38.8694 20.6406 38.6971 22.8383C38.6728 23.1568 38.9038 23.4369 39.217 23.4655C39.233 23.4661 39.2484 23.4679 39.2638 23.4679C39.5564 23.4679 39.804 23.2352 39.8276 22.9343C39.9224 21.7315 40.5431 20.1307 42.9683 19.3248C43.268 19.2245 43.4291 18.8975 43.3331 18.593C43.2354 18.2836 42.915 18.1159 42.6189 18.2156ZM38.3453 29.074C37.7009 29.0151 37.2247 28.7227 36.9209 28.2043C36.5597 27.5826 36.536 26.756 36.7219 26.3147C36.8457 26.02 36.7136 25.6772 36.4258 25.5508C36.138 25.4219 35.8057 25.5587 35.6814 25.8541C35.3882 26.5493 35.3473 27.7679 35.9479 28.8024C36.2896 29.3919 36.9671 30.1182 38.2458 30.2343C38.2618 30.2373 38.2801 30.2373 38.2949 30.2373C38.5863 30.2373 38.8333 30.0088 38.8587 29.7055C38.8878 29.3834 38.6586 29.1014 38.3453 29.074ZM65.2514 20.1605C64.0995 20.2686 63.0731 20.86 62.3666 21.8312C61.6369 22.8328 61.3195 24.1535 61.538 25.2755C61.8869 27.0617 61.6843 27.9855 60.8415 28.4614C60.5679 28.6133 60.4678 28.9671 60.6189 29.2509C60.7219 29.443 60.9162 29.5523 61.1146 29.5523C61.207 29.5523 61.2993 29.5305 61.3852 29.4806C63.0826 28.5234 62.9511 26.6077 62.6473 25.0469C62.4921 24.2508 62.7373 23.2613 63.2727 22.5265C63.634 22.03 64.2908 21.4161 65.3521 21.3176C65.6624 21.2891 65.8951 21.0059 65.8667 20.6874C65.8389 20.3659 65.554 20.127 65.2514 20.1605ZM52.4696 11.9841C40.6479 11.9841 32.7107 20.0462 32.7107 27.5753C32.7107 33.6044 36.3672 34.4741 40.5993 35.4824C40.5993 35.4824 41.0435 35.6009 41.0838 35.6118C44.7918 36.5363 47.2431 37.7415 48.7089 38.4617C51.0423 39.5174 52.976 40.928 54.6094 42.7696C55.6577 43.9492 57.3118 46.8003 57.3313 46.8295C57.4362 47.0082 57.6239 47.1127 57.8199 47.1127C57.8703 47.1127 57.9242 47.1066 57.9751 47.0914L62.3281 45.8206C62.4815 45.7732 62.61 45.6662 62.6822 45.5161C62.7533 45.3696 62.761 45.1994 62.7 45.0469C61.997 43.2296 61.8099 41.4361 61.7625 40.6624L61.9058 40.6047C63.1323 40.1209 64.5981 39.5374 66.0639 38.7984C66.0669 38.796 66.0716 38.7941 66.0746 38.7917C69.6399 36.9897 73.1797 34.231 73.1797 29.5487C73.1756 19.6985 64.0811 11.9841 52.4696 11.9841ZM65.7394 37.66C63.8418 37.5397 63.3301 36.0093 62.9209 34.7676C62.8125 34.4407 62.7136 34.1337 62.5916 33.8797C61.9182 32.4788 60.3091 32.0776 59.0713 32.4064C57.6707 32.7766 56.8427 33.938 56.9091 35.4331C56.9251 35.7534 57.1916 36.0099 57.5013 35.988C57.814 35.9735 58.055 35.7012 58.0414 35.3809C57.9834 34.0401 58.9399 33.6445 59.3532 33.5314C60.1285 33.3266 61.175 33.5588 61.5741 34.3932C61.6606 34.5738 61.7477 34.8339 61.8448 35.1366C62.1782 36.16 62.6846 37.7032 64.122 38.4319C63.1916 38.8464 62.2878 39.2044 61.4936 39.5156L60.9677 39.7252C60.748 39.8115 60.6052 40.0297 60.6058 40.271C60.607 40.367 60.6272 42.49 61.4249 44.8706L58.0764 45.8479C57.5718 45.0025 56.3393 42.9902 55.4468 41.9861C53.9325 40.2801 52.1806 38.926 50.122 37.8661C50.122 37.8661 48.2203 36.9447 47.634 36.6694C46.4045 36.0902 44.7936 35.4526 42.745 34.8588C42.2671 34.3495 41.9212 33.6123 41.8496 32.8507C41.7909 32.2332 41.8732 31.327 42.5928 30.5205C42.8054 30.2847 42.7906 29.9158 42.5602 29.6976C42.3299 29.4812 41.9627 29.5007 41.7607 29.7353C40.9796 30.6099 40.6082 31.758 40.7231 32.9638C40.7711 33.4713 40.9138 33.9642 41.117 34.4218L40.3926 34.2377C36.4288 33.2859 33.8365 32.4891 33.8365 27.5722C33.8365 20.1276 41.3598 14.6632 49.1436 13.4148C48.3891 14.0159 47.7986 14.7191 47.5303 15.3645C47.4077 15.6623 47.5422 16.0015 47.83 16.1255C47.9023 16.1571 47.9763 16.1735 48.0515 16.1735C48.2718 16.1735 48.4797 16.0404 48.5709 15.8191C49.0269 14.7142 50.841 13.3115 52.4951 13.1474C54.8866 13.1504 57.1738 13.5175 59.2946 14.1806C59.326 15.9431 58.6248 17.4036 57.3586 18.1281C57.0867 18.2843 56.989 18.6386 57.1389 18.9194C57.2449 19.1102 57.4379 19.2196 57.634 19.2196C57.7269 19.2196 57.8217 19.1953 57.9076 19.1449C59.4231 18.2818 60.3476 16.5764 60.4282 14.5744C67.265 17.1362 72.0379 22.8814 72.0379 29.5463C72.042 33.5217 68.9547 35.9941 65.7394 37.66ZM67.4735 26.3439C68.1924 27.2975 68.7835 28.9111 67.5214 31.183C67.3674 31.4614 67.4616 31.8157 67.734 31.9743C67.8205 32.0248 67.917 32.0521 68.0118 32.0521C68.2108 32.0521 68.4027 31.9464 68.504 31.7586C70.1575 28.7774 69.1258 26.6381 68.3648 25.6328C68.1788 25.38 67.8229 25.332 67.5747 25.5271C67.3278 25.7234 67.2816 26.0893 67.4735 26.3439ZM54.2564 22.3041C54.3038 22.3144 54.3464 22.3199 54.3938 22.3199C54.6485 22.3199 54.8818 22.1424 54.9446 21.8762C55.0198 21.5662 54.8344 21.249 54.5277 21.1754C53.0921 20.8114 52.4986 19.7605 52.276 19.1637C51.9633 18.3384 52.026 17.5586 52.2511 17.2121C52.4246 16.9459 52.3577 16.5837 52.0953 16.405C51.8347 16.2276 51.4818 16.2981 51.3094 16.5649C50.8356 17.293 50.8001 18.4763 51.22 19.5849C51.7358 20.9572 52.8439 21.9479 54.2564 22.3041ZM50.9162 26.2813C50.6053 26.3147 50.3778 26.6004 50.4104 26.9201C50.443 27.2398 50.7278 27.4671 51.0311 27.4391C52.2469 27.3085 54.4779 27.4021 55.7512 29.4581C55.8614 29.6326 56.0438 29.7286 56.2315 29.7286C56.337 29.7286 56.44 29.6976 56.5342 29.6393C56.7995 29.4654 56.8759 29.1056 56.7077 28.8364C55.0506 26.1537 52.1036 26.1567 50.9162 26.2813ZM52.6816 31.6631C52.3678 31.6407 52.0977 31.8813 52.077 32.2041C52.0337 32.8671 51.7589 33.3606 51.2609 33.684C50.6633 34.0681 49.859 34.11 49.4237 33.9283C49.1341 33.8086 48.8031 33.9508 48.6858 34.2498C48.5668 34.5476 48.7065 34.8855 48.9973 35.0059C49.6802 35.2915 50.8694 35.3073 51.8638 34.6686C52.4305 34.3057 53.1235 33.5952 53.2093 32.28C53.2117 32.2642 53.2117 32.2448 53.2111 32.2302C53.2058 31.9318 52.9778 31.6832 52.6816 31.6631Z" fill="black"/>
<path d="M6.2072 54.0842C11.5754 54.0842 15.6149 58.3114 15.6149 63.575C15.6149 68.9476 11.5754 73.1748 6.2072 73.1748H0.201172V54.0842H6.2072ZM6.18062 70.3385C10.2467 70.3385 12.6384 67.3113 12.6384 63.575C12.6384 59.9478 10.2467 56.9206 6.18062 56.9206H3.12446V70.3385H6.18062ZM24.5176 54.0842C28.6899 54.0842 31.2412 56.7024 31.2412 60.3841C31.2412 64.0659 28.6899 66.5204 24.5176 66.5204H21.1957V73.1748H18.2724V54.0842H24.5176ZM24.3847 63.9022C26.7499 63.9022 28.3179 62.7568 28.3179 60.3841C28.3179 58.0114 26.7499 56.866 24.3847 56.866H21.1957V63.9022H24.3847ZM57.2053 71.1294C55.531 72.6293 53.3519 73.4475 50.9335 73.4475C45.9373 73.4475 41.3398 69.4112 41.3398 63.6295C41.3398 57.8478 45.9373 53.8115 50.9335 53.8115C53.3253 53.8115 55.4779 54.6297 57.1256 56.0751L55.345 58.1478C54.1757 57.2205 52.6609 56.6478 51.1195 56.6478C47.5053 56.6478 44.3694 59.5387 44.3694 63.6295C44.3694 67.7203 47.5053 70.6112 51.1195 70.6112C52.6875 70.6112 54.2554 70.0112 55.4247 69.0294L57.2053 71.1294ZM66.2143 58.7478C69.3502 58.7478 73.3631 61.2023 73.3631 66.1113C73.3631 71.0475 69.3502 73.4475 66.2143 73.4475C63.0784 73.4475 59.0656 71.0475 59.0656 66.1113C59.0656 61.2023 63.0784 58.7478 66.2143 58.7478ZM66.2143 61.3659C64.1946 61.3659 61.856 62.9477 61.856 66.1113C61.856 69.2476 64.1946 70.8294 66.2143 70.8294C68.234 70.8294 70.5727 69.2476 70.5727 66.1113C70.5727 62.9477 68.234 61.3659 66.2143 61.3659ZM86.5976 53.8933H89.4677V61.8023V73.1748H86.5976V70.8294C86.2521 71.9748 84.6045 73.4475 82.1064 73.4475C78.9705 73.4475 75.2234 71.0475 75.2234 66.084C75.2234 61.2023 78.9705 58.7478 82.1064 58.7478C84.6045 58.7478 86.2521 60.275 86.5976 61.2023V53.8933ZM82.4784 70.8294C84.631 70.8294 86.7305 69.2748 86.7305 66.084C86.7305 62.9204 84.631 61.3659 82.4784 61.3659C80.3258 61.3659 78.0138 62.9477 78.0138 66.084C78.0138 69.2476 80.3258 70.8294 82.4784 70.8294ZM99.0083 58.7478C102.144 58.7478 106.396 61.2023 105.732 67.1476H94.7297C95.1549 69.6839 97.1214 70.9385 99.3538 70.9385C101.187 70.9385 102.171 70.4476 103.181 69.6294L104.802 71.2112C103.579 72.6293 101.825 73.4475 99.274 73.4475C95.7661 73.4475 91.8595 70.993 91.8595 66.1113C91.8595 61.2023 95.8724 58.7478 99.0083 58.7478ZM99.0083 61.2841C97.2277 61.2841 95.2346 62.5113 94.7562 64.9931H103.207C102.888 62.5113 100.789 61.2841 99.0083 61.2841Z" fill="black"/>
<path d="M30.5883 80.6613L30.2808 79.9269H28.4467L28.1392 80.6613H27.4023L29.0563 76.8532H29.6765L31.3251 80.6613H30.5883ZM28.6905 79.3448H30.037L29.3637 77.7345L28.6905 79.3448ZM38.9608 80.2533C38.6269 80.5525 38.1922 80.7157 37.6992 80.7157C36.6814 80.7157 35.7749 79.9105 35.7749 78.7572C35.7749 77.604 36.6814 76.7988 37.6992 76.7988C38.1869 76.7988 38.6163 76.962 38.9396 77.2504L38.5208 77.74C38.3088 77.5768 38.0278 77.468 37.7416 77.468C37.0524 77.468 36.4958 78.0065 36.4958 78.7572C36.4958 79.508 37.0524 80.0465 37.7416 80.0465C38.0331 80.0465 38.3247 79.9323 38.542 79.7528L38.9608 80.2533ZM46.5435 80.6613L46.236 79.9269H44.4019L44.0944 80.6613H43.3576L45.0115 76.8532H45.6317L47.2804 80.6613H46.5435ZM44.6457 79.3448H45.9922L45.319 77.7345L44.6457 79.3448ZM53.0819 76.8532C54.1421 76.8532 54.9584 77.6964 54.9584 78.7409C54.9584 79.8181 54.1421 80.6613 53.0819 80.6613H51.8096V76.8532H53.0819ZM53.0766 79.9867C53.8293 79.9867 54.2534 79.4264 54.2534 78.7409C54.2534 78.0881 53.8293 77.5278 53.0766 77.5278H52.504V79.9867H53.0766ZM60.2882 80.003H61.905V80.6613H60.1821H59.5937V76.8532H60.2882H61.8573V77.5115H60.2882V78.4254H61.4809V79.0673H60.2882V80.003ZM70.5161 76.8532V80.6613H69.8004V78.4526L68.8356 80.6613H68.2419L67.2824 78.4635V80.6613H66.5668V76.8532H67.2559L68.5441 79.7038L69.8269 76.8532H70.5161ZM78.6023 76.8532L77.1976 79.0075V80.6613H76.5031V79.0075L75.0983 76.8532H75.8829L76.8477 78.3601L77.8125 76.8532H78.6023Z" fill="black"/>
</svg>
