<svg width="241" height="178" viewBox="0 0 241 178" fill="none" xmlns="http://www.w3.org/2000/svg">
<path d="M78.4592 32.3765C78.8327 32.3765 79.2021 32.2142 79.457 31.907C79.91 31.3598 79.8305 30.551 79.2776 30.099L73.6278 25.4796L78.5441 24.3354C79.0133 24.2255 79.3815 23.8687 79.5001 23.4046C79.6215 22.9405 79.4718 22.4509 79.1145 22.1317L72.1945 15.9215C71.6632 15.4467 70.8528 15.487 70.3701 16.0154C69.8927 16.5426 69.9345 17.3514 70.4645 17.8302L75.552 22.3946L70.4955 23.5709C70.0195 23.6809 69.646 24.0538 69.5341 24.5313C69.4221 25.0047 69.5907 25.5037 69.9709 25.8149L77.6393 32.0841C77.8807 32.2786 78.1719 32.3765 78.4592 32.3765ZM116.809 10.8863L121.836 10.4169L117.955 16.5855C117.578 17.1864 117.761 17.9764 118.365 18.3533C118.577 18.4861 118.816 18.5478 119.047 18.5478C119.478 18.5478 119.898 18.3359 120.142 17.9429L125.412 9.5759C125.668 9.16144 125.669 8.63565 125.415 8.21985C125.158 7.80405 124.689 7.57201 124.196 7.61627L119.023 8.09645L122.39 2.15856C122.741 1.54291 122.522 0.759599 121.901 0.412205C121.286 0.0661521 120.496 0.280758 120.144 0.899093L115.565 8.975C115.327 9.3908 115.345 9.90317 115.605 10.3029C115.864 10.7079 116.32 10.9386 116.809 10.8863ZM171.467 24.5313C171.356 24.0551 170.981 23.6822 170.503 23.5709L165.446 22.3933L170.534 17.8289C171.064 17.3527 171.105 16.5426 170.627 16.0141C170.151 15.487 169.329 15.4494 168.805 15.9202L161.884 22.129C161.528 22.4523 161.378 22.9405 161.498 23.4032C161.619 23.8673 161.985 24.2228 162.454 24.3341L167.37 25.4782L161.72 30.0976C161.173 30.5496 161.091 31.3571 161.542 31.9057C161.796 32.2142 162.165 32.3751 162.54 32.3751C162.829 32.3751 163.119 32.2772 163.36 32.0827L171.028 25.8135C171.407 25.5037 171.577 25.0047 171.467 24.5313ZM102.024 53.3824C101.414 53.0095 100.624 53.2027 100.252 53.8009C99.8759 54.4085 100.067 55.1945 100.673 55.5674C104.475 57.8972 105.762 61.8795 104.208 66.5029C103.982 67.1789 104.346 67.8992 105.021 68.1245C105.159 68.1688 105.298 68.1903 105.431 68.1903C105.968 68.1903 106.471 67.8536 106.654 67.3157C108.592 61.5562 106.861 56.3467 102.024 53.3824ZM96.8608 39.822C91.5009 41.5496 88.3241 45.1737 87.9317 50.0238C87.8764 50.7267 88.4023 51.345 89.1156 51.408C89.152 51.4094 89.1871 51.4134 89.2221 51.4134C89.8882 51.4134 90.4519 50.8997 90.5058 50.2357C90.7215 47.5813 92.1347 44.0484 97.6564 42.2698C98.3387 42.0485 98.7054 41.3269 98.487 40.6549C98.2645 39.9722 97.535 39.602 96.8608 39.822ZM87.1307 63.7855C85.6637 63.6554 84.5796 63.0102 83.8878 61.8661C83.0653 60.4939 83.0114 58.6698 83.4348 57.696C83.7166 57.0455 83.4159 56.289 82.7606 56.01C82.1052 55.7256 81.3488 56.0274 81.0656 56.6793C80.3982 58.2137 80.3051 60.903 81.6724 63.1859C82.4504 64.4869 83.993 66.0898 86.9042 66.346C86.9406 66.3527 86.9824 66.3527 87.0161 66.3527C87.6795 66.3527 88.2418 65.8484 88.2998 65.1791C88.3659 64.4682 87.844 63.8458 87.1307 63.7855ZM148.39 44.1141C145.767 44.3529 143.431 45.6579 141.822 47.8013C140.161 50.0118 139.438 52.9264 139.936 55.4024C140.73 59.3444 140.269 61.3832 138.35 62.4334C137.727 62.7688 137.499 63.5494 137.843 64.1758C138.077 64.5996 138.52 64.841 138.971 64.841C139.182 64.841 139.392 64.7928 139.588 64.6828C143.452 62.5702 143.153 58.3425 142.461 54.8981C142.108 53.141 142.666 50.9574 143.885 49.3357C144.708 48.2399 146.203 46.8852 148.619 46.6679C149.326 46.6049 149.856 45.9798 149.791 45.277C149.728 44.5675 149.079 44.0403 148.39 44.1141ZM119.289 26.0697C92.3733 26.0697 74.302 43.8619 74.302 60.4778C74.302 73.7834 82.6271 75.7028 92.2628 77.928C92.2628 77.928 93.2741 78.1896 93.3658 78.2137C101.808 80.2538 107.389 82.9136 110.726 84.503C116.039 86.8328 120.442 89.946 124.161 94.0101C126.547 96.6135 130.313 102.906 130.358 102.97C130.597 103.364 131.024 103.595 131.47 103.595C131.585 103.595 131.708 103.582 131.824 103.548L141.734 100.743C142.084 100.639 142.376 100.403 142.541 100.071C142.703 99.7481 142.72 99.3726 142.581 99.0359C140.981 95.0254 140.555 91.0673 140.447 89.3598L140.773 89.2324C143.566 88.1647 146.903 86.8771 150.24 85.2461C150.247 85.2407 150.258 85.2367 150.264 85.2313C158.382 81.2544 166.441 75.1663 166.441 64.833C166.432 43.0947 145.726 26.0697 119.289 26.0697ZM149.501 82.7339C145.181 82.4683 144.016 79.0909 143.084 76.3507C142.837 75.629 142.612 74.9517 142.334 74.391C140.801 71.2994 137.138 70.4141 134.319 71.1398C131.131 71.9566 129.245 74.5198 129.396 77.8194C129.433 78.5262 130.04 79.0923 130.745 79.044C131.457 79.0118 132.006 78.4109 131.975 77.704C131.842 74.7451 134.02 73.872 134.961 73.6225C136.726 73.1705 139.109 73.6828 140.018 75.5244C140.215 75.9228 140.413 76.4969 140.634 77.1648C141.393 79.4236 142.546 82.8291 145.819 84.4373C143.7 85.3521 141.643 86.1421 139.834 86.8288L138.637 87.2916C138.137 87.482 137.812 87.9635 137.813 88.496C137.816 88.708 137.862 93.3931 139.678 98.6469L132.054 100.804C130.905 98.938 128.099 94.497 126.067 92.2812C122.619 88.5162 118.631 85.5278 113.944 83.1885C113.944 83.1885 109.614 81.1552 108.279 80.5476C105.48 79.2693 101.812 77.8623 97.148 76.5518C96.0599 75.4278 95.2724 73.8009 95.1092 72.1202C94.9758 70.7575 95.1632 68.7576 96.8015 66.9777C97.2856 66.4573 97.2519 65.6431 96.7273 65.1616C96.2028 64.6841 95.3668 64.727 94.907 65.2448C93.1284 67.1749 92.283 69.7086 92.5446 72.3697C92.6538 73.4897 92.9788 74.5775 93.4413 75.5875L91.7922 75.1811C82.7673 73.0806 76.8653 71.3222 76.8653 60.4711C76.8653 44.0417 93.9941 31.9821 111.716 29.2271C109.998 30.5537 108.654 32.1055 108.043 33.53C107.764 34.1872 108.07 34.9357 108.725 35.2093C108.89 35.279 109.058 35.3152 109.23 35.3152C109.731 35.3152 110.205 35.0215 110.412 34.5333C111.451 32.0948 115.581 28.9991 119.347 28.637C124.792 28.6437 129.999 29.4538 134.828 30.9172C134.899 34.8069 133.303 38.03 130.42 39.6288C129.801 39.9735 129.579 40.7555 129.92 41.3752C130.161 41.7964 130.601 42.0378 131.047 42.0378C131.259 42.0378 131.474 41.9841 131.67 41.8728C135.12 39.9682 137.225 36.2045 137.409 31.7863C152.975 37.4398 163.841 50.1191 163.841 64.8276C163.851 73.601 156.822 79.0574 149.501 82.7339ZM153.449 57.7604C155.086 59.8649 156.432 63.426 153.559 68.4397C153.208 69.054 153.422 69.836 154.043 70.1861C154.239 70.2974 154.459 70.3578 154.675 70.3578C155.128 70.3578 155.565 70.1244 155.796 69.7099C159.56 63.1309 157.211 58.4096 155.479 56.1911C155.055 55.6331 154.245 55.5271 153.68 55.9577C153.118 56.3909 153.012 57.1984 153.449 57.7604ZM123.357 48.8448C123.465 48.8676 123.562 48.8797 123.67 48.8797C124.25 48.8797 124.781 48.488 124.924 47.9006C125.095 47.2165 124.673 46.5163 123.975 46.3541C120.706 45.5506 119.355 43.2315 118.848 41.9144C118.136 40.0929 118.279 38.372 118.791 37.6075C119.186 37.02 119.034 36.2206 118.437 35.8263C117.843 35.4346 117.04 35.5902 116.647 36.179C115.569 37.7859 115.488 40.3974 116.444 42.8439C117.618 45.8725 120.141 48.0588 123.357 48.8448ZM115.752 57.6222C115.044 57.696 114.526 58.3264 114.6 59.0319C114.675 59.7374 115.323 60.2391 116.014 60.1774C118.782 59.889 123.861 60.0956 126.76 64.6332C127.011 65.0181 127.426 65.23 127.854 65.23C128.094 65.23 128.329 65.1616 128.543 65.0329C129.147 64.6492 129.321 63.8552 128.938 63.261C125.165 57.3406 118.456 57.3473 115.752 57.6222ZM119.772 69.4994C119.057 69.4497 118.442 69.9809 118.395 70.6931C118.296 72.1564 117.671 73.2456 116.537 73.9591C115.176 74.8068 113.345 74.8994 112.354 74.4983C111.695 74.2341 110.941 74.548 110.674 75.2079C110.403 75.8651 110.721 76.6109 111.383 76.8764C112.938 77.5069 115.645 77.5417 117.909 76.132C119.2 75.3313 120.777 73.7633 120.973 70.8608C120.978 70.8259 120.978 70.783 120.977 70.7508C120.965 70.0922 120.446 69.5436 119.772 69.4994Z" fill="#272F51"/>
<path d="M13.9596 118.98C26.1819 118.98 35.3788 128.309 35.3788 139.925C35.3788 151.782 26.1819 161.111 13.9596 161.111H0.285156V118.98H13.9596ZM13.8991 154.851C23.1566 154.851 28.6021 148.17 28.6021 139.925C28.6021 131.92 23.1566 125.239 13.8991 125.239H6.94085V154.851H13.8991ZM55.6485 118.98C65.148 118.98 70.9566 124.758 70.9566 132.883C70.9566 141.008 65.148 146.425 55.6485 146.425H48.0852V161.111H41.4295V118.98H55.6485ZM55.3459 140.647C60.731 140.647 64.3009 138.119 64.3009 132.883C64.3009 127.647 60.731 125.119 55.3459 125.119H48.0852V140.647H55.3459ZM130.071 156.597C126.259 159.907 121.298 161.713 115.792 161.713C104.417 161.713 93.949 152.805 93.949 140.045C93.949 127.286 104.417 118.378 115.792 118.378C121.237 118.378 126.138 120.184 129.89 123.373L125.836 127.948C123.174 125.901 119.725 124.637 116.215 124.637C107.986 124.637 100.847 131.017 100.847 140.045C100.847 149.073 107.986 155.453 116.215 155.453C119.785 155.453 123.355 154.129 126.017 151.962L130.071 156.597ZM150.583 129.272C157.723 129.272 166.859 134.689 166.859 145.522C166.859 156.416 157.723 161.713 150.583 161.713C143.443 161.713 134.307 156.416 134.307 145.522C134.307 134.689 143.443 129.272 150.583 129.272ZM150.583 135.05C145.984 135.05 140.66 138.541 140.66 145.522C140.66 152.444 145.984 155.935 150.583 155.935C155.181 155.935 160.506 152.444 160.506 145.522C160.506 138.541 155.181 135.05 150.583 135.05ZM196.991 118.558H203.526V136.013V161.111H196.991V155.935C196.205 158.462 192.453 161.713 186.766 161.713C179.626 161.713 171.095 156.416 171.095 145.462C171.095 134.689 179.626 129.272 186.766 129.272C192.453 129.272 196.205 132.642 196.991 134.689V118.558ZM187.613 155.935C192.514 155.935 197.294 152.504 197.294 145.462C197.294 138.48 192.514 135.05 187.613 135.05C182.712 135.05 177.448 138.541 177.448 145.462C177.448 152.444 182.712 155.935 187.613 155.935ZM225.248 129.272C232.388 129.272 242.069 134.689 240.556 147.809H215.506C216.474 153.407 220.952 156.175 226.034 156.175C230.209 156.175 232.448 155.092 234.747 153.286L238.438 156.777C235.655 159.907 231.661 161.713 225.853 161.713C217.866 161.713 208.972 156.296 208.972 145.522C208.972 134.689 218.108 129.272 225.248 129.272ZM225.248 134.869C221.194 134.869 216.656 137.578 215.567 143.055H234.808C234.082 137.578 229.302 134.869 225.248 134.869Z" fill="#D0FFF6"/>
<path d="M69.4666 177.632L68.7666 176.012H64.5906L63.8905 177.632H62.2129L65.9786 169.228H67.3907L71.1443 177.632H69.4666ZM65.1458 174.727H68.2114L66.6786 171.173L65.1458 174.727ZM88.5291 176.732C87.7687 177.392 86.779 177.753 85.6566 177.753C83.3392 177.753 81.2754 175.976 81.2754 173.43C81.2754 170.885 83.3392 169.108 85.6566 169.108C86.7669 169.108 87.7446 169.469 88.4808 170.105L87.5273 171.185C87.0445 170.825 86.4049 170.585 85.7531 170.585C84.1841 170.585 82.9168 171.774 82.9168 173.43C82.9168 175.087 84.1841 176.276 85.7531 176.276C86.4169 176.276 87.0807 176.024 87.5756 175.628L88.5291 176.732ZM105.793 177.632L105.093 176.012H100.917L100.217 177.632H98.5395L102.305 169.228H103.717L107.471 177.632H105.793ZM101.472 174.727H104.538L103.005 171.173L101.472 174.727ZM120.68 169.228C123.094 169.228 124.952 171.089 124.952 173.394C124.952 175.772 123.094 177.632 120.68 177.632H117.783V169.228H120.68ZM120.668 176.144C122.381 176.144 123.347 174.907 123.347 173.394C123.347 171.954 122.381 170.717 120.668 170.717H119.364V176.144H120.668ZM137.087 176.18H140.768V177.632H136.845H135.506V169.228H137.087H140.659V170.681H137.087V172.698H139.802V174.115H137.087V176.18ZM160.374 169.228V177.632H158.744V172.758L156.548 177.632H155.196L153.011 172.782V177.632H151.382V169.228H152.951L155.884 175.519L158.805 169.228H160.374ZM178.784 169.228L175.586 173.983V177.632H174.005V173.983L170.806 169.228H172.593L174.789 172.554L176.986 169.228H178.784Z" fill="#272F51"/>
</svg>
