<svg width="62" height="47" viewBox="0 0 62 47" fill="none" xmlns="http://www.w3.org/2000/svg">
<path d="M20.4478 9.0493C20.5415 9.0493 20.6343 9.00788 20.6982 8.92949C20.8119 8.78983 20.792 8.58342 20.6532 8.46806L19.2352 7.28915L20.4691 6.99716C20.5869 6.96909 20.6793 6.87804 20.7091 6.7596C20.7395 6.64116 20.7019 6.51622 20.6123 6.43475L18.8755 4.84986C18.7421 4.72869 18.5387 4.73895 18.4176 4.87382C18.2978 5.00835 18.3083 5.21476 18.4413 5.33697L19.7181 6.50184L18.4491 6.80205C18.3296 6.83012 18.2359 6.92528 18.2078 7.04714C18.1797 7.16797 18.222 7.29531 18.3174 7.37473L20.242 8.97468C20.3026 9.02431 20.3757 9.0493 20.4478 9.0493ZM30.0729 3.56484L31.3345 3.44503L30.3605 5.01931C30.2658 5.17266 30.3118 5.37428 30.4634 5.47047C30.5165 5.50436 30.5764 5.5201 30.6347 5.5201C30.7426 5.5201 30.8482 5.46602 30.9095 5.36572L32.232 3.2304C32.2963 3.12463 32.2966 2.99044 32.2327 2.88433C32.1684 2.77821 32.0506 2.71899 31.9268 2.73029L30.6286 2.85284L31.4736 1.33744C31.5616 1.18032 31.5068 0.980411 31.3508 0.891753C31.1964 0.803438 30.9981 0.858207 30.9098 1.01601L29.7605 3.07705C29.7009 3.18316 29.7053 3.31393 29.7707 3.41593C29.8356 3.51931 29.95 3.57819 30.0729 3.56484ZM43.7908 7.04714C43.7631 6.92562 43.669 6.83046 43.5489 6.80205L42.2798 6.5015L43.5567 5.33663C43.6897 5.21511 43.7001 5.00835 43.58 4.87348C43.4605 4.73896 43.2544 4.72937 43.1228 4.84952L41.3857 6.43406C41.2963 6.51656 41.2588 6.64116 41.2889 6.75926C41.3193 6.8777 41.411 6.96841 41.5288 6.99682L42.7627 7.28881L41.3447 8.46772C41.2073 8.58308 41.1867 8.78914 41.3 8.92915C41.3637 9.00788 41.4564 9.04896 41.5505 9.04896C41.6229 9.04896 41.6957 9.02397 41.7562 8.97433L43.6809 7.37439C43.7759 7.29531 43.8186 7.16797 43.7908 7.04714ZM26.3621 14.4102C26.2091 14.315 26.0108 14.3643 25.9174 14.517C25.823 14.6721 25.871 14.8726 26.023 14.9678C26.9773 15.5624 27.3002 16.5787 26.9103 17.7586C26.8535 17.9312 26.9448 18.115 27.1144 18.1725C27.1489 18.1838 27.1838 18.1893 27.2173 18.1893C27.352 18.1893 27.4782 18.1034 27.5242 17.9661C28.0105 16.4962 27.576 15.1667 26.3621 14.4102ZM25.0662 10.9495C23.721 11.3903 22.9237 12.3153 22.8252 13.553C22.8113 13.7324 22.9433 13.8902 23.1223 13.9063C23.1315 13.9067 23.1403 13.9077 23.1491 13.9077C23.3163 13.9077 23.4577 13.7766 23.4713 13.6071C23.5254 12.9297 23.8801 12.0281 25.2659 11.5742C25.4372 11.5177 25.5292 11.3335 25.4744 11.162C25.4185 10.9878 25.2355 10.8933 25.0662 10.9495ZM22.6242 17.0651C22.256 17.0319 21.9839 16.8673 21.8103 16.5753C21.6038 16.2251 21.5903 15.7596 21.6966 15.5111C21.7673 15.345 21.6918 15.152 21.5274 15.0808C21.3629 15.0082 21.173 15.0852 21.102 15.2516C20.9344 15.6432 20.9111 16.3295 21.2542 16.9121C21.4495 17.2442 21.8367 17.6532 22.5673 17.7186C22.5765 17.7203 22.587 17.7203 22.5954 17.7203C22.7619 17.7203 22.903 17.5916 22.9176 17.4208C22.9342 17.2394 22.8032 17.0805 22.6242 17.0651ZM37.9991 12.0448C37.3408 12.1058 36.7544 12.4388 36.3506 12.9858C35.9337 13.55 35.7523 14.2938 35.8772 14.9257C36.0765 15.9317 35.9608 16.4521 35.4792 16.7201C35.3228 16.8057 35.2656 17.0049 35.3519 17.1647C35.4108 17.2729 35.5218 17.3345 35.6352 17.3345C35.688 17.3345 35.7408 17.3222 35.7898 17.2941C36.7598 16.755 36.6846 15.676 36.511 14.797C36.4224 14.3486 36.5625 13.7913 36.8684 13.3774C37.0748 13.0978 37.4501 12.752 38.0566 12.6966C38.2339 12.6805 38.3669 12.521 38.3507 12.3416C38.3348 12.1605 38.172 12.026 37.9991 12.0448ZM30.6952 7.43977C23.94 7.43977 19.4044 11.9805 19.4044 16.221C19.4044 19.6167 21.4939 20.1065 23.9122 20.6744C23.9122 20.6744 24.166 20.7412 24.1891 20.7473C26.3079 21.268 27.7086 21.9468 28.5462 22.3524C29.8796 22.947 30.9846 23.7415 31.918 24.7787C32.517 25.4431 33.4622 27.0489 33.4733 27.0653C33.5332 27.166 33.6405 27.2248 33.7525 27.2248C33.7813 27.2248 33.8121 27.2214 33.8412 27.2129L36.3286 26.4971C36.4163 26.4704 36.4897 26.4101 36.531 26.3256C36.5716 26.2431 36.576 26.1473 36.5411 26.0613C36.1394 25.0378 36.0325 24.0277 36.0054 23.5919L36.0873 23.5594C36.7882 23.2869 37.6258 22.9583 38.4634 22.5421C38.4651 22.5407 38.4678 22.5397 38.4695 22.5383C40.5068 21.5234 42.5295 19.9696 42.5295 17.3325C42.5272 11.7847 37.3303 7.43977 30.6952 7.43977ZM38.2779 21.9009C37.1936 21.8331 36.9012 20.9712 36.6674 20.2719C36.6054 20.0877 36.5489 19.9148 36.4792 19.7718C36.0944 18.9827 35.1749 18.7568 34.4676 18.942C33.6673 19.1505 33.1941 19.8046 33.232 20.6467C33.2412 20.8271 33.3935 20.9716 33.5705 20.9592C33.7492 20.951 33.8869 20.7977 33.8791 20.6173C33.8459 19.8621 34.3925 19.6393 34.6287 19.5756C35.0717 19.4603 35.6697 19.591 35.8978 20.061C35.9472 20.1627 35.997 20.3092 36.0525 20.4797C36.243 21.0561 36.5323 21.9252 37.3537 22.3356C36.822 22.5691 36.3056 22.7707 35.8518 22.946L35.5513 23.0641C35.4257 23.1127 35.3441 23.2356 35.3445 23.3715C35.3452 23.4256 35.3567 24.6212 35.8125 25.9621L33.8991 26.5125C33.6107 26.0363 32.9065 24.903 32.3965 24.3375C31.5311 23.3766 30.5301 22.6139 29.3537 22.017C29.3537 22.017 28.267 21.498 27.932 21.343C27.2294 21.0167 26.3089 20.6577 25.1383 20.3232C24.8652 20.0364 24.6676 19.6211 24.6266 19.1922C24.5931 18.8444 24.6402 18.3341 25.0514 17.8798C25.1728 17.747 25.1644 17.5392 25.0327 17.4163C24.9011 17.2945 24.6913 17.3054 24.5759 17.4376C24.1295 17.9301 23.9173 18.5768 23.983 19.2559C24.0104 19.5417 24.0919 19.8193 24.208 20.0771L23.7941 19.9734C21.529 19.4373 20.0478 18.9886 20.0478 16.2193C20.0478 12.0264 24.3468 8.94866 28.7946 8.24556C28.3635 8.5841 28.0261 8.98015 27.8728 9.34368C27.8027 9.51141 27.8796 9.70242 28.044 9.77225C28.0853 9.79005 28.1276 9.7993 28.1706 9.7993C28.2965 9.7993 28.4153 9.72433 28.4674 9.59973C28.728 8.97741 29.7646 8.18737 30.7098 8.09494C32.0763 8.09666 33.3833 8.30341 34.5952 8.67687C34.6132 9.66956 34.2125 10.4921 33.4889 10.9002C33.3336 10.9881 33.2777 11.1877 33.3634 11.3458C33.4239 11.4533 33.5343 11.5149 33.6463 11.5149C33.6994 11.5149 33.7536 11.5013 33.8026 11.4728C34.6687 10.9868 35.1969 10.0262 35.243 8.89868C39.1497 10.3415 41.8771 13.5774 41.8771 17.3311C41.8794 19.5701 40.1152 20.9627 38.2779 21.9009ZM39.2688 15.5275C39.6797 16.0646 40.0174 16.9734 39.2962 18.2529C39.2083 18.4097 39.2621 18.6093 39.4177 18.6986C39.4671 18.727 39.5223 18.7424 39.5765 18.7424C39.6902 18.7424 39.7998 18.6829 39.8577 18.5771C40.8026 16.8981 40.213 15.6932 39.7782 15.127C39.6719 14.9846 39.4685 14.9575 39.3267 15.0674C39.1856 15.178 39.1592 15.3841 39.2688 15.5275ZM31.7163 13.2522C31.7433 13.258 31.7677 13.2611 31.7948 13.2611C31.9403 13.2611 32.0736 13.1611 32.1095 13.0112C32.1525 12.8366 32.0466 12.6579 31.8713 12.6165C31.0509 12.4115 30.7118 11.8196 30.5846 11.4835C30.4059 11.0186 30.4418 10.5794 30.5704 10.3843C30.6695 10.2344 30.6313 10.0304 30.4813 9.92972C30.3324 9.82976 30.1307 9.86947 30.0323 10.0197C29.7615 10.4298 29.7412 11.0963 29.9812 11.7207C30.2759 12.4936 30.9091 13.0516 31.7163 13.2522ZM29.8075 15.4922C29.6299 15.5111 29.4999 15.6719 29.5185 15.852C29.5371 16.032 29.6999 16.1601 29.8732 16.1443C30.568 16.0707 31.8428 16.1234 32.5704 17.2815C32.6334 17.3797 32.7376 17.4338 32.8449 17.4338C32.9051 17.4338 32.964 17.4163 33.0178 17.3835C33.1694 17.2856 33.2131 17.0829 33.117 16.9313C32.1701 15.4203 30.4861 15.4221 29.8075 15.4922ZM30.8164 18.5234C30.637 18.5107 30.4827 18.6463 30.4709 18.828C30.4462 19.2015 30.2891 19.4794 30.0045 19.6615C29.663 19.8779 29.2035 19.9015 28.9547 19.7991C28.7892 19.7317 28.6001 19.8118 28.533 19.9802C28.465 20.148 28.5449 20.3383 28.7111 20.4061C29.1013 20.5669 29.7808 20.5758 30.349 20.2161C30.6729 20.0117 31.0689 19.6116 31.1179 18.8708C31.1193 18.8619 31.1193 18.851 31.1189 18.8427C31.1159 18.6747 30.9856 18.5347 30.8164 18.5234Z" fill="white"/>
<path d="M4.26014 31.1516C7.32769 31.1516 9.63595 33.5325 9.63595 36.497C9.63595 39.523 7.32769 41.9038 4.26014 41.9038H0.828125V31.1516H4.26014ZM4.24495 40.3063C6.5684 40.3063 7.93513 38.6014 7.93513 36.497C7.93513 34.4541 6.5684 32.7491 4.24495 32.7491H2.49858V40.3063H4.24495ZM14.7232 31.1516C17.1074 31.1516 18.5653 32.6262 18.5653 34.6999C18.5653 36.7735 17.1074 38.1559 14.7232 38.1559H12.825V41.9038H11.1545V31.1516H14.7232ZM14.6473 36.6813C15.9988 36.6813 16.8948 36.0362 16.8948 34.6999C16.8948 33.3635 15.9988 32.7184 14.6473 32.7184H12.825V36.6813H14.6473ZM33.4019 40.7518C32.4452 41.5966 31.1999 42.0574 29.818 42.0574C26.9631 42.0574 24.3359 39.7841 24.3359 36.5277C24.3359 33.2714 26.9631 30.998 29.818 30.998C31.1848 30.998 32.4148 31.4589 33.3563 32.2729L32.3389 33.4403C31.6707 32.9181 30.8051 32.5955 29.9243 32.5955C27.859 32.5955 26.0671 34.2237 26.0671 36.5277C26.0671 38.8318 27.859 40.4599 29.9243 40.4599C30.8203 40.4599 31.7163 40.122 32.3844 39.569L33.4019 40.7518ZM38.5499 33.7782C40.3419 33.7782 42.6349 35.1607 42.6349 37.9255C42.6349 40.7057 40.3419 42.0574 38.5499 42.0574C36.758 42.0574 34.4649 40.7057 34.4649 37.9255C34.4649 35.1607 36.758 33.7782 38.5499 33.7782ZM38.5499 35.2528C37.3958 35.2528 36.0594 36.1437 36.0594 37.9255C36.0594 39.6919 37.3958 40.5828 38.5499 40.5828C39.7041 40.5828 41.0404 39.6919 41.0404 37.9255C41.0404 36.1437 39.7041 35.2528 38.5499 35.2528ZM50.1975 31.0441H51.8376V35.4986V41.9038H50.1975V40.5828C50.0001 41.2279 49.0586 42.0574 47.6311 42.0574C45.8392 42.0574 43.6979 40.7057 43.6979 37.9101C43.6979 35.1607 45.8392 33.7782 47.6311 33.7782C49.0586 33.7782 50.0001 34.6384 50.1975 35.1607V31.0441ZM47.8437 40.5828C49.0738 40.5828 50.2734 39.7073 50.2734 37.9101C50.2734 36.1284 49.0738 35.2528 47.8437 35.2528C46.6136 35.2528 45.2925 36.1437 45.2925 37.9101C45.2925 39.6919 46.6136 40.5828 47.8437 40.5828ZM57.2893 33.7782C59.0813 33.7782 61.511 35.1607 61.1314 38.5092H54.8444C55.0874 39.9377 56.2111 40.6443 57.4868 40.6443C58.5346 40.6443 59.0965 40.3678 59.6735 39.907L60.5999 40.7979C59.9013 41.5966 58.899 42.0574 57.4412 42.0574C55.4367 42.0574 53.2043 40.675 53.2043 37.9255C53.2043 35.1607 55.4974 33.7782 57.2893 33.7782ZM57.2893 35.2067C56.2719 35.2067 55.1329 35.898 54.8596 37.2957H59.6887C59.5065 35.898 58.3068 35.2067 57.2893 35.2067Z" fill="white"/>
<path d="M18.1916 46.1197L18.0159 45.7061H16.9678L16.7922 46.1197H16.3711L17.3162 43.975H17.6706L18.6127 46.1197H18.1916ZM17.1072 45.3783H17.8766L17.4919 44.4713L17.1072 45.3783ZM22.9759 45.8899C22.7851 46.0585 22.5367 46.1504 22.255 46.1504C21.6734 46.1504 21.1554 45.6969 21.1554 45.0474C21.1554 44.3978 21.6734 43.9443 22.255 43.9443C22.5337 43.9443 22.779 44.0363 22.9638 44.1986L22.7245 44.4744C22.6034 44.3825 22.4428 44.3212 22.2792 44.3212C21.8854 44.3212 21.5674 44.6245 21.5674 45.0474C21.5674 45.4702 21.8854 45.7735 22.2792 45.7735C22.4458 45.7735 22.6124 45.7092 22.7366 45.6081L22.9759 45.8899ZM27.3089 46.1197L27.1332 45.7061H26.0851L25.9094 46.1197H25.4884L26.4335 43.975H26.7879L27.73 46.1197H27.3089ZM26.2244 45.3783H26.9939L26.6092 44.4713L26.2244 45.3783ZM31.0451 43.975C31.6509 43.975 32.1174 44.4499 32.1174 45.0382C32.1174 45.6448 31.6509 46.1197 31.0451 46.1197H30.3181V43.975H31.0451ZM31.0421 45.7398C31.4722 45.7398 31.7146 45.4242 31.7146 45.0382C31.7146 44.6705 31.4722 44.3549 31.0421 44.3549H30.7149V45.7398H31.0421ZM35.163 45.749H36.0869V46.1197H35.1024H34.7662V43.975H35.163H36.0596V44.3457H35.163V44.8605H35.8446V45.222H35.163V45.749ZM41.0075 43.975V46.1197H40.5986V44.8758L40.0473 46.1197H39.708L39.1597 44.8819V46.1197H38.7508V43.975H39.1446L39.8806 45.5805L40.6137 43.975H41.0075ZM45.6282 43.975L44.8255 45.1883V46.1197H44.4287V45.1883L43.6259 43.975H44.0743L44.6256 44.8237L45.1769 43.975H45.6282Z" fill="white"/>
</svg>
